<mxfile modified="2024-05-02T08:26:18.261Z" host="app.diagrams.net" agent="Mozilla/5.0 (Windows NT 10.0; Win64; x64) AppleWebKit/537.36 (KHTML, like Gecko) Chrome/124.0.0.0 Safari/537.36" etag="9OO38w0EWPzxGFBfN6R1" version="24.3.1" type="github">
  <diagram id="Ht1M8jgEwFfnCIfOTk4-" name="Page-1">
    <mxGraphModel dx="1434" dy="790" grid="1" gridSize="10" guides="1" tooltips="1" connect="1" arrows="1" fold="1" page="1" pageScale="1" pageWidth="827" pageHeight="1169" math="0" shadow="0">
      <root>
        <mxCell id="0" />
        <mxCell id="1" parent="0" />
        <mxCell id="4tVBXx3hwd8C4_JNDfFv-1" value="VPC" style="points=[[0,0],[0.25,0],[0.5,0],[0.75,0],[1,0],[1,0.25],[1,0.5],[1,0.75],[1,1],[0.75,1],[0.5,1],[0.25,1],[0,1],[0,0.75],[0,0.5],[0,0.25]];outlineConnect=0;gradientColor=none;html=1;whiteSpace=wrap;fontSize=12;fontStyle=0;container=1;pointerEvents=0;collapsible=0;recursiveResize=0;shape=mxgraph.aws4.group;grIcon=mxgraph.aws4.group_vpc2;strokeColor=#8C4FFF;fillColor=none;verticalAlign=top;align=left;spacingLeft=30;fontColor=#AAB7B8;dashed=0;" vertex="1" parent="1">
          <mxGeometry x="220" y="240" width="820" height="590" as="geometry" />
        </mxCell>
        <mxCell id="4tVBXx3hwd8C4_JNDfFv-3" value="Seoul" style="points=[[0,0],[0.25,0],[0.5,0],[0.75,0],[1,0],[1,0.25],[1,0.5],[1,0.75],[1,1],[0.75,1],[0.5,1],[0.25,1],[0,1],[0,0.75],[0,0.5],[0,0.25]];outlineConnect=0;gradientColor=none;html=1;whiteSpace=wrap;fontSize=12;fontStyle=0;container=1;pointerEvents=0;collapsible=0;recursiveResize=0;shape=mxgraph.aws4.group;grIcon=mxgraph.aws4.group_region;strokeColor=#00A4A6;fillColor=none;verticalAlign=top;align=left;spacingLeft=30;fontColor=#147EBA;dashed=1;" vertex="1" parent="1">
          <mxGeometry x="50" y="210" width="1000" height="650" as="geometry" />
        </mxCell>
        <mxCell id="4tVBXx3hwd8C4_JNDfFv-7" value="Public subnet" style="points=[[0,0],[0.25,0],[0.5,0],[0.75,0],[1,0],[1,0.25],[1,0.5],[1,0.75],[1,1],[0.75,1],[0.5,1],[0.25,1],[0,1],[0,0.75],[0,0.5],[0,0.25]];outlineConnect=0;gradientColor=none;html=1;whiteSpace=wrap;fontSize=12;fontStyle=0;container=1;pointerEvents=0;collapsible=0;recursiveResize=0;shape=mxgraph.aws4.group;grIcon=mxgraph.aws4.group_security_group;grStroke=0;strokeColor=#7AA116;fillColor=#F2F6E8;verticalAlign=top;align=left;spacingLeft=30;fontColor=#248814;dashed=0;" vertex="1" parent="4tVBXx3hwd8C4_JNDfFv-3">
          <mxGeometry x="270" y="98" width="160" height="160" as="geometry" />
        </mxCell>
        <mxCell id="UEzPUAAOIrF-is8g5C7q-2" value="AWS Cloud" style="points=[[0,0],[0.25,0],[0.5,0],[0.75,0],[1,0],[1,0.25],[1,0.5],[1,0.75],[1,1],[0.75,1],[0.5,1],[0.25,1],[0,1],[0,0.75],[0,0.5],[0,0.25]];outlineConnect=0;gradientColor=none;html=1;whiteSpace=wrap;fontSize=12;fontStyle=0;shape=mxgraph.aws4.group;grIcon=mxgraph.aws4.group_aws_cloud_alt;strokeColor=#232F3E;fillColor=none;verticalAlign=top;align=left;spacingLeft=30;fontColor=#232F3E;dashed=0;container=1;pointerEvents=0;collapsible=0;recursiveResize=0;" parent="1" vertex="1">
          <mxGeometry x="22" y="172.5" width="1046" height="714.5" as="geometry" />
        </mxCell>
        <mxCell id="4tVBXx3hwd8C4_JNDfFv-86" value="" style="line;strokeWidth=1;html=1;" vertex="1" parent="UEzPUAAOIrF-is8g5C7q-2">
          <mxGeometry x="344" y="242" width="154" height="10" as="geometry" />
        </mxCell>
        <mxCell id="4tVBXx3hwd8C4_JNDfFv-8" value="Private subnet" style="points=[[0,0],[0.25,0],[0.5,0],[0.75,0],[1,0],[1,0.25],[1,0.5],[1,0.75],[1,1],[0.75,1],[0.5,1],[0.25,1],[0,1],[0,0.75],[0,0.5],[0,0.25]];outlineConnect=0;gradientColor=none;html=1;whiteSpace=wrap;fontSize=12;fontStyle=0;container=1;pointerEvents=0;collapsible=0;recursiveResize=0;shape=mxgraph.aws4.group;grIcon=mxgraph.aws4.group_security_group;grStroke=0;strokeColor=#00A4A6;fillColor=#E6F6F7;verticalAlign=top;align=left;spacingLeft=30;fontColor=#147EBA;dashed=0;" vertex="1" parent="UEzPUAAOIrF-is8g5C7q-2">
          <mxGeometry x="538" y="135.5" width="162" height="160" as="geometry" />
        </mxCell>
        <mxCell id="4tVBXx3hwd8C4_JNDfFv-39" value="Security Group" style="rounded=1;arcSize=10;dashed=1;strokeColor=#ff0000;fillColor=none;gradientColor=none;dashPattern=8 4;strokeWidth=2;" vertex="1" parent="4tVBXx3hwd8C4_JNDfFv-8">
          <mxGeometry x="1" y="140" width="159" height="20" as="geometry" />
        </mxCell>
        <mxCell id="4tVBXx3hwd8C4_JNDfFv-11" style="edgeStyle=none;curved=1;rounded=0;orthogonalLoop=1;jettySize=auto;html=1;exitX=0;exitY=0;exitDx=0;exitDy=0;fontSize=12;startSize=8;endSize=8;" edge="1" parent="UEzPUAAOIrF-is8g5C7q-2" source="4tVBXx3hwd8C4_JNDfFv-8" target="4tVBXx3hwd8C4_JNDfFv-8">
          <mxGeometry relative="1" as="geometry" />
        </mxCell>
        <mxCell id="4tVBXx3hwd8C4_JNDfFv-12" value="Private subnet" style="points=[[0,0],[0.25,0],[0.5,0],[0.75,0],[1,0],[1,0.25],[1,0.5],[1,0.75],[1,1],[0.75,1],[0.5,1],[0.25,1],[0,1],[0,0.75],[0,0.5],[0,0.25]];outlineConnect=0;gradientColor=none;html=1;whiteSpace=wrap;fontSize=12;fontStyle=0;container=1;pointerEvents=0;collapsible=0;recursiveResize=0;shape=mxgraph.aws4.group;grIcon=mxgraph.aws4.group_security_group;grStroke=0;strokeColor=#00A4A6;fillColor=#E6F6F7;verticalAlign=top;align=left;spacingLeft=30;fontColor=#147EBA;dashed=0;" vertex="1" parent="UEzPUAAOIrF-is8g5C7q-2">
          <mxGeometry x="778" y="135.5" width="160" height="160" as="geometry" />
        </mxCell>
        <mxCell id="4tVBXx3hwd8C4_JNDfFv-18" value="Public subnet" style="points=[[0,0],[0.25,0],[0.5,0],[0.75,0],[1,0],[1,0.25],[1,0.5],[1,0.75],[1,1],[0.75,1],[0.5,1],[0.25,1],[0,1],[0,0.75],[0,0.5],[0,0.25]];outlineConnect=0;gradientColor=none;html=1;whiteSpace=wrap;fontSize=12;fontStyle=0;container=1;pointerEvents=0;collapsible=0;recursiveResize=0;shape=mxgraph.aws4.group;grIcon=mxgraph.aws4.group_security_group;grStroke=0;strokeColor=#7AA116;fillColor=#F2F6E8;verticalAlign=top;align=left;spacingLeft=30;fontColor=#248814;dashed=0;" vertex="1" parent="UEzPUAAOIrF-is8g5C7q-2">
          <mxGeometry x="298" y="437.5" width="160" height="160" as="geometry" />
        </mxCell>
        <mxCell id="4tVBXx3hwd8C4_JNDfFv-28" value="" style="sketch=0;points=[[0,0,0],[0.25,0,0],[0.5,0,0],[0.75,0,0],[1,0,0],[0,1,0],[0.25,1,0],[0.5,1,0],[0.75,1,0],[1,1,0],[0,0.25,0],[0,0.5,0],[0,0.75,0],[1,0.25,0],[1,0.5,0],[1,0.75,0]];outlineConnect=0;fontColor=#232F3E;fillColor=#ED7100;strokeColor=#ffffff;dashed=0;verticalLabelPosition=bottom;verticalAlign=top;align=center;html=1;fontSize=12;fontStyle=0;aspect=fixed;shape=mxgraph.aws4.resourceIcon;resIcon=mxgraph.aws4.ec2;" vertex="1" parent="4tVBXx3hwd8C4_JNDfFv-18">
          <mxGeometry x="53.5" y="45" width="53" height="53" as="geometry" />
        </mxCell>
        <mxCell id="4tVBXx3hwd8C4_JNDfFv-40" value="Security Group" style="rounded=1;arcSize=10;dashed=1;strokeColor=#ff0000;fillColor=none;gradientColor=none;dashPattern=8 4;strokeWidth=2;" vertex="1" parent="4tVBXx3hwd8C4_JNDfFv-18">
          <mxGeometry y="140" width="160" height="19" as="geometry" />
        </mxCell>
        <mxCell id="4tVBXx3hwd8C4_JNDfFv-19" value="Private subnet" style="points=[[0,0],[0.25,0],[0.5,0],[0.75,0],[1,0],[1,0.25],[1,0.5],[1,0.75],[1,1],[0.75,1],[0.5,1],[0.25,1],[0,1],[0,0.75],[0,0.5],[0,0.25]];outlineConnect=0;gradientColor=none;html=1;whiteSpace=wrap;fontSize=12;fontStyle=0;container=1;pointerEvents=0;collapsible=0;recursiveResize=0;shape=mxgraph.aws4.group;grIcon=mxgraph.aws4.group_security_group;grStroke=0;strokeColor=#00A4A6;fillColor=#E6F6F7;verticalAlign=top;align=left;spacingLeft=30;fontColor=#147EBA;dashed=0;" vertex="1" parent="UEzPUAAOIrF-is8g5C7q-2">
          <mxGeometry x="538" y="437.5" width="161" height="160" as="geometry" />
        </mxCell>
        <mxCell id="4tVBXx3hwd8C4_JNDfFv-41" value="Security Group" style="rounded=1;arcSize=10;dashed=1;strokeColor=#ff0000;fillColor=none;gradientColor=none;dashPattern=8 4;strokeWidth=2;" vertex="1" parent="4tVBXx3hwd8C4_JNDfFv-19">
          <mxGeometry x="-1" y="140" width="162" height="20" as="geometry" />
        </mxCell>
        <mxCell id="4tVBXx3hwd8C4_JNDfFv-20" style="edgeStyle=none;curved=1;rounded=0;orthogonalLoop=1;jettySize=auto;html=1;exitX=0;exitY=0;exitDx=0;exitDy=0;fontSize=12;startSize=8;endSize=8;" edge="1" parent="UEzPUAAOIrF-is8g5C7q-2" source="4tVBXx3hwd8C4_JNDfFv-19" target="4tVBXx3hwd8C4_JNDfFv-19">
          <mxGeometry relative="1" as="geometry" />
        </mxCell>
        <mxCell id="4tVBXx3hwd8C4_JNDfFv-21" value="Private subnet" style="points=[[0,0],[0.25,0],[0.5,0],[0.75,0],[1,0],[1,0.25],[1,0.5],[1,0.75],[1,1],[0.75,1],[0.5,1],[0.25,1],[0,1],[0,0.75],[0,0.5],[0,0.25]];outlineConnect=0;gradientColor=none;html=1;whiteSpace=wrap;fontSize=12;fontStyle=0;container=1;pointerEvents=0;collapsible=0;recursiveResize=0;shape=mxgraph.aws4.group;grIcon=mxgraph.aws4.group_security_group;grStroke=0;strokeColor=#00A4A6;fillColor=#E6F6F7;verticalAlign=top;align=left;spacingLeft=30;fontColor=#147EBA;dashed=0;" vertex="1" parent="UEzPUAAOIrF-is8g5C7q-2">
          <mxGeometry x="778" y="437.5" width="160" height="160" as="geometry" />
        </mxCell>
        <mxCell id="4tVBXx3hwd8C4_JNDfFv-22" value="" style="sketch=0;outlineConnect=0;fontColor=#232F3E;gradientColor=none;fillColor=#8C4FFF;strokeColor=none;dashed=0;verticalLabelPosition=bottom;verticalAlign=top;align=center;html=1;fontSize=12;fontStyle=0;aspect=fixed;pointerEvents=1;shape=mxgraph.aws4.nat_gateway;" vertex="1" parent="UEzPUAAOIrF-is8g5C7q-2">
          <mxGeometry x="308" y="227.5" width="38" height="38" as="geometry" />
        </mxCell>
        <mxCell id="4tVBXx3hwd8C4_JNDfFv-23" value="" style="sketch=0;outlineConnect=0;fontColor=#232F3E;gradientColor=none;fillColor=#8C4FFF;strokeColor=none;dashed=0;verticalLabelPosition=bottom;verticalAlign=top;align=center;html=1;fontSize=12;fontStyle=0;aspect=fixed;pointerEvents=1;shape=mxgraph.aws4.internet_gateway;" vertex="1" parent="UEzPUAAOIrF-is8g5C7q-2">
          <mxGeometry x="168" y="337.5" width="58" height="58" as="geometry" />
        </mxCell>
        <mxCell id="4tVBXx3hwd8C4_JNDfFv-25" style="edgeStyle=none;curved=1;rounded=0;orthogonalLoop=1;jettySize=auto;html=1;exitX=1;exitY=0.25;exitDx=0;exitDy=0;fontSize=12;startSize=8;endSize=8;" edge="1" parent="UEzPUAAOIrF-is8g5C7q-2" source="4tVBXx3hwd8C4_JNDfFv-18" target="4tVBXx3hwd8C4_JNDfFv-18">
          <mxGeometry relative="1" as="geometry" />
        </mxCell>
        <mxCell id="4tVBXx3hwd8C4_JNDfFv-24" value="" style="sketch=0;outlineConnect=0;fontColor=#232F3E;gradientColor=none;fillColor=#8C4FFF;strokeColor=none;dashed=0;verticalLabelPosition=bottom;verticalAlign=top;align=center;html=1;fontSize=12;fontStyle=0;aspect=fixed;pointerEvents=1;shape=mxgraph.aws4.customer_gateway;" vertex="1" parent="UEzPUAAOIrF-is8g5C7q-2">
          <mxGeometry x="359" y="347.5" width="38" height="38" as="geometry" />
        </mxCell>
        <mxCell id="4tVBXx3hwd8C4_JNDfFv-26" value="" style="sketch=0;outlineConnect=0;fontColor=#232F3E;gradientColor=none;fillColor=#8C4FFF;strokeColor=none;dashed=0;verticalLabelPosition=bottom;verticalAlign=top;align=center;html=1;fontSize=12;fontStyle=0;aspect=fixed;pointerEvents=1;shape=mxgraph.aws4.customer_gateway;" vertex="1" parent="UEzPUAAOIrF-is8g5C7q-2">
          <mxGeometry x="599" y="348.5" width="38" height="38" as="geometry" />
        </mxCell>
        <mxCell id="4tVBXx3hwd8C4_JNDfFv-32" value="" style="sketch=0;points=[[0,0,0],[0.25,0,0],[0.5,0,0],[0.75,0,0],[1,0,0],[0,1,0],[0.25,1,0],[0.5,1,0],[0.75,1,0],[1,1,0],[0,0.25,0],[0,0.5,0],[0,0.75,0],[1,0.25,0],[1,0.5,0],[1,0.75,0]];outlineConnect=0;fontColor=#232F3E;fillColor=#ED7100;strokeColor=#ffffff;dashed=0;verticalLabelPosition=bottom;verticalAlign=top;align=center;html=1;fontSize=12;fontStyle=0;aspect=fixed;shape=mxgraph.aws4.resourceIcon;resIcon=mxgraph.aws4.ec2;" vertex="1" parent="UEzPUAAOIrF-is8g5C7q-2">
          <mxGeometry x="351.5" y="189" width="53" height="53" as="geometry" />
        </mxCell>
        <mxCell id="4tVBXx3hwd8C4_JNDfFv-37" value="Security Group" style="rounded=1;arcSize=10;dashed=1;strokeColor=#ff0000;fillColor=none;gradientColor=none;dashPattern=8 4;strokeWidth=2;" vertex="1" parent="UEzPUAAOIrF-is8g5C7q-2">
          <mxGeometry x="298" y="277" width="160" height="18" as="geometry" />
        </mxCell>
        <mxCell id="4tVBXx3hwd8C4_JNDfFv-34" value="" style="sketch=0;points=[[0,0,0],[0.25,0,0],[0.5,0,0],[0.75,0,0],[1,0,0],[0,1,0],[0.25,1,0],[0.5,1,0],[0.75,1,0],[1,1,0],[0,0.25,0],[0,0.5,0],[0,0.75,0],[1,0.25,0],[1,0.5,0],[1,0.75,0]];outlineConnect=0;fontColor=#232F3E;fillColor=#ED7100;strokeColor=#ffffff;dashed=0;verticalLabelPosition=bottom;verticalAlign=top;align=center;html=1;fontSize=12;fontStyle=0;aspect=fixed;shape=mxgraph.aws4.resourceIcon;resIcon=mxgraph.aws4.ec2;" vertex="1" parent="UEzPUAAOIrF-is8g5C7q-2">
          <mxGeometry x="591.5" y="481.25" width="53" height="53" as="geometry" />
        </mxCell>
        <mxCell id="4tVBXx3hwd8C4_JNDfFv-33" value="" style="sketch=0;points=[[0,0,0],[0.25,0,0],[0.5,0,0],[0.75,0,0],[1,0,0],[0,1,0],[0.25,1,0],[0.5,1,0],[0.75,1,0],[1,1,0],[0,0.25,0],[0,0.5,0],[0,0.75,0],[1,0.25,0],[1,0.5,0],[1,0.75,0]];outlineConnect=0;fontColor=#232F3E;fillColor=#ED7100;strokeColor=#ffffff;dashed=0;verticalLabelPosition=bottom;verticalAlign=top;align=center;html=1;fontSize=12;fontStyle=0;aspect=fixed;shape=mxgraph.aws4.resourceIcon;resIcon=mxgraph.aws4.ec2;" vertex="1" parent="UEzPUAAOIrF-is8g5C7q-2">
          <mxGeometry x="592.5" y="189" width="53" height="53" as="geometry" />
        </mxCell>
        <mxCell id="4tVBXx3hwd8C4_JNDfFv-63" value="" style="endArrow=none;html=1;rounded=0;fontSize=12;startSize=8;endSize=8;curved=1;entryX=0.5;entryY=1;entryDx=0;entryDy=0;" edge="1" parent="UEzPUAAOIrF-is8g5C7q-2" source="4tVBXx3hwd8C4_JNDfFv-24" target="4tVBXx3hwd8C4_JNDfFv-37">
          <mxGeometry width="50" height="50" relative="1" as="geometry">
            <mxPoint x="438" y="387.5" as="sourcePoint" />
            <mxPoint x="378" y="264.5" as="targetPoint" />
          </mxGeometry>
        </mxCell>
        <mxCell id="4tVBXx3hwd8C4_JNDfFv-64" value="" style="endArrow=none;html=1;rounded=0;fontSize=12;startSize=8;endSize=8;curved=1;entryX=0.5;entryY=1;entryDx=0;entryDy=0;" edge="1" parent="UEzPUAAOIrF-is8g5C7q-2">
          <mxGeometry width="50" height="50" relative="1" as="geometry">
            <mxPoint x="377.71" y="437.5" as="sourcePoint" />
            <mxPoint x="377.71" y="384.5" as="targetPoint" />
          </mxGeometry>
        </mxCell>
        <mxCell id="4tVBXx3hwd8C4_JNDfFv-65" value="" style="endArrow=none;html=1;rounded=0;fontSize=12;startSize=8;endSize=8;curved=1;entryX=0.5;entryY=1;entryDx=0;entryDy=0;" edge="1" parent="UEzPUAAOIrF-is8g5C7q-2">
          <mxGeometry width="50" height="50" relative="1" as="geometry">
            <mxPoint x="617.71" y="348.5" as="sourcePoint" />
            <mxPoint x="617.71" y="295.5" as="targetPoint" />
          </mxGeometry>
        </mxCell>
        <mxCell id="4tVBXx3hwd8C4_JNDfFv-67" value="" style="endArrow=none;html=1;rounded=0;fontSize=12;startSize=8;endSize=8;curved=1;entryX=0.5;entryY=1;entryDx=0;entryDy=0;" edge="1" parent="UEzPUAAOIrF-is8g5C7q-2">
          <mxGeometry width="50" height="50" relative="1" as="geometry">
            <mxPoint x="618" y="437.5" as="sourcePoint" />
            <mxPoint x="617.71" y="386.5" as="targetPoint" />
          </mxGeometry>
        </mxCell>
        <mxCell id="4tVBXx3hwd8C4_JNDfFv-68" value="" style="endArrow=none;html=1;rounded=0;fontSize=12;startSize=8;endSize=8;curved=1;strokeWidth=1;" edge="1" parent="UEzPUAAOIrF-is8g5C7q-2" source="4tVBXx3hwd8C4_JNDfFv-23" target="4tVBXx3hwd8C4_JNDfFv-24">
          <mxGeometry width="50" height="50" relative="1" as="geometry">
            <mxPoint x="438" y="387.5" as="sourcePoint" />
            <mxPoint x="488" y="337.5" as="targetPoint" />
          </mxGeometry>
        </mxCell>
        <mxCell id="4tVBXx3hwd8C4_JNDfFv-84" value="" style="line;strokeWidth=1;direction=south;html=1;aspect=fixed;" vertex="1" parent="UEzPUAAOIrF-is8g5C7q-2">
          <mxGeometry x="493" y="210" width="10" height="300" as="geometry" />
        </mxCell>
        <mxCell id="4tVBXx3hwd8C4_JNDfFv-85" value="" style="line;strokeWidth=1;html=1;" vertex="1" parent="UEzPUAAOIrF-is8g5C7q-2">
          <mxGeometry x="498" y="504.75" width="42" height="10" as="geometry" />
        </mxCell>
        <mxCell id="4tVBXx3hwd8C4_JNDfFv-91" value="" style="line;strokeWidth=1;rotatable=0;dashed=0;labelPosition=right;align=left;verticalAlign=middle;spacingTop=0;spacingLeft=6;points=[];portConstraint=eastwest;" vertex="1" parent="UEzPUAAOIrF-is8g5C7q-2">
          <mxGeometry x="498" y="205" width="41" height="10" as="geometry" />
        </mxCell>
        <mxCell id="4tVBXx3hwd8C4_JNDfFv-74" value="Availability Zone" style="fillColor=none;strokeColor=#147EBA;dashed=1;verticalAlign=top;fontStyle=0;fontColor=#147EBA;whiteSpace=wrap;html=1;" vertex="1" parent="UEzPUAAOIrF-is8g5C7q-2">
          <mxGeometry x="279" y="105" width="680" height="210" as="geometry" />
        </mxCell>
        <mxCell id="4tVBXx3hwd8C4_JNDfFv-92" value="Availability Zone" style="fillColor=none;strokeColor=#147EBA;dashed=1;verticalAlign=top;fontStyle=0;fontColor=#147EBA;whiteSpace=wrap;html=1;" vertex="1" parent="UEzPUAAOIrF-is8g5C7q-2">
          <mxGeometry x="278" y="402.75" width="680" height="210" as="geometry" />
        </mxCell>
        <mxCell id="4tVBXx3hwd8C4_JNDfFv-94" value="" style="endArrow=none;html=1;rounded=0;fontSize=12;startSize=8;endSize=8;curved=1;strokeWidth=1;" edge="1" parent="UEzPUAAOIrF-is8g5C7q-2">
          <mxGeometry width="50" height="50" relative="1" as="geometry">
            <mxPoint x="238" y="246.5" as="sourcePoint" />
            <mxPoint x="308" y="246.58000000000004" as="targetPoint" />
          </mxGeometry>
        </mxCell>
        <mxCell id="4tVBXx3hwd8C4_JNDfFv-97" value="" style="endArrow=none;html=1;rounded=0;fontSize=12;startSize=8;endSize=8;curved=1;" edge="1" parent="UEzPUAAOIrF-is8g5C7q-2">
          <mxGeometry width="50" height="50" relative="1" as="geometry">
            <mxPoint x="239" y="366" as="sourcePoint" />
            <mxPoint x="239" y="246" as="targetPoint" />
          </mxGeometry>
        </mxCell>
        <mxCell id="-QjtrjUzRDEMRZ5MF8oH-47" value="WARNING_AWS Network&lt;div&gt;&lt;br&gt;&lt;/div&gt;" style="text;html=1;resizable=0;points=[];autosize=1;align=left;verticalAlign=top;spacingTop=-4;fontSize=30;fontStyle=1" parent="1" vertex="1">
          <mxGeometry x="12" y="65.5" width="370" height="80" as="geometry" />
        </mxCell>
        <mxCell id="-QjtrjUzRDEMRZ5MF8oH-48" value="2024.05.02" style="text;html=1;resizable=0;points=[];autosize=1;align=left;verticalAlign=top;spacingTop=-4;fontSize=16" parent="1" vertex="1">
          <mxGeometry x="12" y="115.5" width="100" height="30" as="geometry" />
        </mxCell>
        <mxCell id="SCVMTBWpLvtzJIhz15lM-1" value="" style="line;strokeWidth=2;html=1;fontSize=14;" parent="1" vertex="1">
          <mxGeometry x="8" y="140.5" width="1060" height="10" as="geometry" />
        </mxCell>
      </root>
    </mxGraphModel>
  </diagram>
</mxfile>
